<svg width="91" height="91" viewBox="0 0 91 91" fill="none" xmlns="http://www.w3.org/2000/svg">
<path d="M4 0H0V4H4V0Z" fill="#FFDBB2"/>
<path d="M4 4H0V7H4V4Z" fill="#FFDBB2"/>
<path d="M4 7H0V11H4V7Z" fill="#FFDBB2"/>
<path d="M4 11H0V15H4V11Z" fill="#FFDBB2"/>
<path d="M4 15H0V18H4V15Z" fill="#FFDBB2"/>
<path d="M4 18H0V22H4V18Z" fill="#FFDBB2"/>
<path d="M4 22H0V25H4V22Z" fill="#FFDBB2"/>
<path d="M4 29H0V33H4V29Z" fill="#FFDBB2"/>
<path d="M4 36H0V40H4V36Z" fill="#FFDBB2"/>
<path d="M4 66H0V69H4V66Z" fill="#FFDBB2"/>
<path d="M4 69H0V73H4V69Z" fill="#FFDBB2"/>
<path d="M4 73H0V76H4V73Z" fill="#FFDBB2"/>
<path d="M4 76H0V80H4V76Z" fill="#FFDBB2"/>
<path d="M4 80H0V84H4V80Z" fill="#FFDBB2"/>
<path d="M4 84H0V87H4V84Z" fill="#FFDBB2"/>
<path d="M4 87H0V91H4V87Z" fill="#FFDBB2"/>
<path d="M7 0H4V4H7V0Z" fill="#FFDBB2"/>
<path d="M7 22H4V25H7V22Z" fill="#FFDBB2"/>
<path d="M7 29H4V33H7V29Z" fill="#FFDBB2"/>
<path d="M7 36H4V40H7V36Z" fill="#FFDBB2"/>
<path d="M7 44H4V47H7V44Z" fill="#FFDBB2"/>
<path d="M7 47H4V51H7V47Z" fill="#FFDBB2"/>
<path d="M7 51H4V55H7V51Z" fill="#FFDBB2"/>
<path d="M7 55H4V58H7V55Z" fill="#FFDBB2"/>
<path d="M7 58H4V62H7V58Z" fill="#FFDBB2"/>
<path d="M7 66H4V69H7V66Z" fill="#FFDBB2"/>
<path d="M7 87H4V91H7V87Z" fill="#FFDBB2"/>
<path d="M11 0H7V4H11V0Z" fill="#FFDBB2"/>
<path d="M11 7H7V11H11V7Z" fill="#FFDBB2"/>
<path d="M11 11H7V15H11V11Z" fill="#FFDBB2"/>
<path d="M11 15H7V18H11V15Z" fill="#FFDBB2"/>
<path d="M11 22H7V25H11V22Z" fill="#FFDBB2"/>
<path d="M11 29H7V33H11V29Z" fill="#FFDBB2"/>
<path d="M11 36H7V40H11V36Z" fill="#FFDBB2"/>
<path d="M11 40H7V44H11V40Z" fill="#FFDBB2"/>
<path d="M11 44H7V47H11V44Z" fill="#FFDBB2"/>
<path d="M11 51H7V55H11V51Z" fill="#FFDBB2"/>
<path d="M11 55H7V58H11V55Z" fill="#FFDBB2"/>
<path d="M11 66H7V69H11V66Z" fill="#FFDBB2"/>
<path d="M11 73H7V76H11V73Z" fill="#FFDBB2"/>
<path d="M11 76H7V80H11V76Z" fill="#FFDBB2"/>
<path d="M11 80H7V84H11V80Z" fill="#FFDBB2"/>
<path d="M11 87H7V91H11V87Z" fill="#FFDBB2"/>
<path d="M15 0H11V4H15V0Z" fill="#FFDBB2"/>
<path d="M15 7H11V11H15V7Z" fill="#FFDBB2"/>
<path d="M15 11H11V15H15V11Z" fill="#FFDBB2"/>
<path d="M15 15H11V18H15V15Z" fill="#FFDBB2"/>
<path d="M15 22H11V25H15V22Z" fill="#FFDBB2"/>
<path d="M15 29H11V33H15V29Z" fill="#FFDBB2"/>
<path d="M15 47H11V51H15V47Z" fill="#FFDBB2"/>
<path d="M15 58H11V62H15V58Z" fill="#FFDBB2"/>
<path d="M15 66H11V69H15V66Z" fill="#FFDBB2"/>
<path d="M15 73H11V76H15V73Z" fill="#FFDBB2"/>
<path d="M15 76H11V80H15V76Z" fill="#FFDBB2"/>
<path d="M15 80H11V84H15V80Z" fill="#FFDBB2"/>
<path d="M15 87H11V91H15V87Z" fill="#FFDBB2"/>
<path d="M18 0H15V4H18V0Z" fill="#FFDBB2"/>
<path d="M18 7H15V11H18V7Z" fill="#FFDBB2"/>
<path d="M18 11H15V15H18V11Z" fill="#FFDBB2"/>
<path d="M18 15H15V18H18V15Z" fill="#FFDBB2"/>
<path d="M18 22H15V25H18V22Z" fill="#FFDBB2"/>
<path d="M18 29H15V33H18V29Z" fill="#FFDBB2"/>
<path d="M18 44H15V47H18V44Z" fill="#FFDBB2"/>
<path d="M18 55H15V58H18V55Z" fill="#FFDBB2"/>
<path d="M18 66H15V69H18V66Z" fill="#FFDBB2"/>
<path d="M18 73H15V76H18V73Z" fill="#FFDBB2"/>
<path d="M18 76H15V80H18V76Z" fill="#FFDBB2"/>
<path d="M18 80H15V84H18V80Z" fill="#FFDBB2"/>
<path d="M18 87H15V91H18V87Z" fill="#FFDBB2"/>
<path d="M22 0H18V4H22V0Z" fill="#FFDBB2"/>
<path d="M22 22H18V25H22V22Z" fill="#FFDBB2"/>
<path d="M22 36H18V40H22V36Z" fill="#FFDBB2"/>
<path d="M22 44H18V47H22V44Z" fill="#FFDBB2"/>
<path d="M22 58H18V62H22V58Z" fill="#FFDBB2"/>
<path d="M22 66H18V69H22V66Z" fill="#FFDBB2"/>
<path d="M22 87H18V91H22V87Z" fill="#FFDBB2"/>
<path d="M25 0H22V4H25V0Z" fill="#FFDBB2"/>
<path d="M25 4H22V7H25V4Z" fill="#FFDBB2"/>
<path d="M25 7H22V11H25V7Z" fill="#FFDBB2"/>
<path d="M25 11H22V15H25V11Z" fill="#FFDBB2"/>
<path d="M25 15H22V18H25V15Z" fill="#FFDBB2"/>
<path d="M25 18H22V22H25V18Z" fill="#FFDBB2"/>
<path d="M25 22H22V25H25V22Z" fill="#FFDBB2"/>
<path d="M25 29H22V33H25V29Z" fill="#FFDBB2"/>
<path d="M25 36H22V40H25V36Z" fill="#FFDBB2"/>
<path d="M25 44H22V47H25V44Z" fill="#FFDBB2"/>
<path d="M25 51H22V55H25V51Z" fill="#FFDBB2"/>
<path d="M25 58H22V62H25V58Z" fill="#FFDBB2"/>
<path d="M25 66H22V69H25V66Z" fill="#FFDBB2"/>
<path d="M25 69H22V73H25V69Z" fill="#FFDBB2"/>
<path d="M25 73H22V76H25V73Z" fill="#FFDBB2"/>
<path d="M25 76H22V80H25V76Z" fill="#FFDBB2"/>
<path d="M25 80H22V84H25V80Z" fill="#FFDBB2"/>
<path d="M25 84H22V87H25V84Z" fill="#FFDBB2"/>
<path d="M25 87H22V91H25V87Z" fill="#FFDBB2"/>
<path d="M29 29H25V33H29V29Z" fill="#FFDBB2"/>
<path d="M29 33H25V36H29V33Z" fill="#FFDBB2"/>
<path d="M29 36H25V40H29V36Z" fill="#FFDBB2"/>
<path d="M29 47H25V51H29V47Z" fill="#FFDBB2"/>
<path d="M29 55H25V58H29V55Z" fill="#FFDBB2"/>
<path d="M29 58H25V62H29V58Z" fill="#FFDBB2"/>
<path d="M33 4H29V7H33V4Z" fill="#FFDBB2"/>
<path d="M33 11H29V15H33V11Z" fill="#FFDBB2"/>
<path d="M33 18H29V22H33V18Z" fill="#FFDBB2"/>
<path d="M33 22H29V25H33V22Z" fill="#FFDBB2"/>
<path d="M33 29H29V33H33V29Z" fill="#FFDBB2"/>
<path d="M33 36H29V40H33V36Z" fill="#FFDBB2"/>
<path d="M33 40H29V44H33V40Z" fill="#FFDBB2"/>
<path d="M33 44H29V47H33V44Z" fill="#FFDBB2"/>
<path d="M33 55H29V58H33V55Z" fill="#FFDBB2"/>
<path d="M33 62H29V66H33V62Z" fill="#FFDBB2"/>
<path d="M33 66H29V69H33V66Z" fill="#FFDBB2"/>
<path d="M33 73H29V76H33V73Z" fill="#FFDBB2"/>
<path d="M33 76H29V80H33V76Z" fill="#FFDBB2"/>
<path d="M33 80H29V84H33V80Z" fill="#FFDBB2"/>
<path d="M33 84H29V87H33V84Z" fill="#FFDBB2"/>
<path d="M33 87H29V91H33V87Z" fill="#FFDBB2"/>
<path d="M36 11H33V15H36V11Z" fill="#FFDBB2"/>
<path d="M36 15H33V18H36V15Z" fill="#FFDBB2"/>
<path d="M36 18H33V22H36V18Z" fill="#FFDBB2"/>
<path d="M36 25H33V29H36V25Z" fill="#FFDBB2"/>
<path d="M36 29H33V33H36V29Z" fill="#FFDBB2"/>
<path d="M36 44H33V47H36V44Z" fill="#FFDBB2"/>
<path d="M36 58H33V62H36V58Z" fill="#FFDBB2"/>
<path d="M36 62H33V66H36V62Z" fill="#FFDBB2"/>
<path d="M36 73H33V76H36V73Z" fill="#FFDBB2"/>
<path d="M40 0H36V4H40V0Z" fill="#FFDBB2"/>
<path d="M40 4H36V7H40V4Z" fill="#FFDBB2"/>
<path d="M40 11H36V15H40V11Z" fill="#FFDBB2"/>
<path d="M40 22H36V25H40V22Z" fill="#FFDBB2"/>
<path d="M40 25H36V29H40V25Z" fill="#FFDBB2"/>
<path d="M40 33H36V36H40V33Z" fill="#FFDBB2"/>
<path d="M40 36H36V40H40V36Z" fill="#FFDBB2"/>
<path d="M40 44H36V47H40V44Z" fill="#FFDBB2"/>
<path d="M40 51H36V55H40V51Z" fill="#FFDBB2"/>
<path d="M40 58H36V62H40V58Z" fill="#FFDBB2"/>
<path d="M40 69H36V73H40V69Z" fill="#FFDBB2"/>
<path d="M40 73H36V76H40V73Z" fill="#FFDBB2"/>
<path d="M44 18H40V22H44V18Z" fill="#FFDBB2"/>
<path d="M44 25H40V29H44V25Z" fill="#FFDBB2"/>
<path d="M44 29H40V33H44V29Z" fill="#FFDBB2"/>
<path d="M44 51H40V55H44V51Z" fill="#FFDBB2"/>
<path d="M44 55H40V58H44V55Z" fill="#FFDBB2"/>
<path d="M44 58H40V62H44V58Z" fill="#FFDBB2"/>
<path d="M44 80H40V84H44V80Z" fill="#FFDBB2"/>
<path d="M44 84H40V87H44V84Z" fill="#FFDBB2"/>
<path d="M44 87H40V91H44V87Z" fill="#FFDBB2"/>
<path d="M47 0H44V4H47V0Z" fill="#FFDBB2"/>
<path d="M47 7H44V11H47V7Z" fill="#FFDBB2"/>
<path d="M47 11H44V15H47V11Z" fill="#FFDBB2"/>
<path d="M47 18H44V22H47V18Z" fill="#FFDBB2"/>
<path d="M47 22H44V25H47V22Z" fill="#FFDBB2"/>
<path d="M47 33H44V36H47V33Z" fill="#FFDBB2"/>
<path d="M47 40H44V44H47V40Z" fill="#FFDBB2"/>
<path d="M47 44H44V47H47V44Z" fill="#FFDBB2"/>
<path d="M47 51H44V55H47V51Z" fill="#FFDBB2"/>
<path d="M47 62H44V66H47V62Z" fill="#FFDBB2"/>
<path d="M47 69H44V73H47V69Z" fill="#FFDBB2"/>
<path d="M47 73H44V76H47V73Z" fill="#FFDBB2"/>
<path d="M47 80H44V84H47V80Z" fill="#FFDBB2"/>
<path d="M51 0H47V4H51V0Z" fill="#FFDBB2"/>
<path d="M51 4H47V7H51V4Z" fill="#FFDBB2"/>
<path d="M51 11H47V15H51V11Z" fill="#FFDBB2"/>
<path d="M51 15H47V18H51V15Z" fill="#FFDBB2"/>
<path d="M51 29H47V33H51V29Z" fill="#FFDBB2"/>
<path d="M51 33H47V36H51V33Z" fill="#FFDBB2"/>
<path d="M51 36H47V40H51V36Z" fill="#FFDBB2"/>
<path d="M51 44H47V47H51V44Z" fill="#FFDBB2"/>
<path d="M51 47H47V51H51V47Z" fill="#FFDBB2"/>
<path d="M51 51H47V55H51V51Z" fill="#FFDBB2"/>
<path d="M51 62H47V66H51V62Z" fill="#FFDBB2"/>
<path d="M51 66H47V69H51V66Z" fill="#FFDBB2"/>
<path d="M51 69H47V73H51V69Z" fill="#FFDBB2"/>
<path d="M55 4H51V7H55V4Z" fill="#FFDBB2"/>
<path d="M55 11H51V15H55V11Z" fill="#FFDBB2"/>
<path d="M55 22H51V25H55V22Z" fill="#FFDBB2"/>
<path d="M55 25H51V29H55V25Z" fill="#FFDBB2"/>
<path d="M55 29H51V33H55V29Z" fill="#FFDBB2"/>
<path d="M55 36H51V40H55V36Z" fill="#FFDBB2"/>
<path d="M55 40H51V44H55V40Z" fill="#FFDBB2"/>
<path d="M55 51H51V55H55V51Z" fill="#FFDBB2"/>
<path d="M55 55H51V58H55V55Z" fill="#FFDBB2"/>
<path d="M55 66H51V69H55V66Z" fill="#FFDBB2"/>
<path d="M55 73H51V76H55V73Z" fill="#FFDBB2"/>
<path d="M55 84H51V87H55V84Z" fill="#FFDBB2"/>
<path d="M58 4H55V7H58V4Z" fill="#FFDBB2"/>
<path d="M58 7H55V11H58V7Z" fill="#FFDBB2"/>
<path d="M58 18H55V22H58V18Z" fill="#FFDBB2"/>
<path d="M58 25H55V29H58V25Z" fill="#FFDBB2"/>
<path d="M58 29H55V33H58V29Z" fill="#FFDBB2"/>
<path d="M58 36H55V40H58V36Z" fill="#FFDBB2"/>
<path d="M58 44H55V47H58V44Z" fill="#FFDBB2"/>
<path d="M58 51H55V55H58V51Z" fill="#FFDBB2"/>
<path d="M58 55H55V58H58V55Z" fill="#FFDBB2"/>
<path d="M58 58H55V62H58V58Z" fill="#FFDBB2"/>
<path d="M58 73H55V76H58V73Z" fill="#FFDBB2"/>
<path d="M58 84H55V87H58V84Z" fill="#FFDBB2"/>
<path d="M62 4H58V7H62V4Z" fill="#FFDBB2"/>
<path d="M62 11H58V15H62V11Z" fill="#FFDBB2"/>
<path d="M62 15H58V18H62V15Z" fill="#FFDBB2"/>
<path d="M62 18H58V22H62V18Z" fill="#FFDBB2"/>
<path d="M62 22H58V25H62V22Z" fill="#FFDBB2"/>
<path d="M62 33H58V36H62V33Z" fill="#FFDBB2"/>
<path d="M62 44H58V47H62V44Z" fill="#FFDBB2"/>
<path d="M62 47H58V51H62V47Z" fill="#FFDBB2"/>
<path d="M62 58H58V62H62V58Z" fill="#FFDBB2"/>
<path d="M62 62H58V66H62V62Z" fill="#FFDBB2"/>
<path d="M62 66H58V69H62V66Z" fill="#FFDBB2"/>
<path d="M62 69H58V73H62V69Z" fill="#FFDBB2"/>
<path d="M62 73H58V76H62V73Z" fill="#FFDBB2"/>
<path d="M62 76H58V80H62V76Z" fill="#FFDBB2"/>
<path d="M62 80H58V84H62V80Z" fill="#FFDBB2"/>
<path d="M62 84H58V87H62V84Z" fill="#FFDBB2"/>
<path d="M66 29H62V33H66V29Z" fill="#FFDBB2"/>
<path d="M66 33H62V36H66V33Z" fill="#FFDBB2"/>
<path d="M66 40H62V44H66V40Z" fill="#FFDBB2"/>
<path d="M66 44H62V47H66V44Z" fill="#FFDBB2"/>
<path d="M66 47H62V51H66V47Z" fill="#FFDBB2"/>
<path d="M66 58H62V62H66V58Z" fill="#FFDBB2"/>
<path d="M66 73H62V76H66V73Z" fill="#FFDBB2"/>
<path d="M66 76H62V80H66V76Z" fill="#FFDBB2"/>
<path d="M66 80H62V84H66V80Z" fill="#FFDBB2"/>
<path d="M66 84H62V87H66V84Z" fill="#FFDBB2"/>
<path d="M69 0H66V4H69V0Z" fill="#FFDBB2"/>
<path d="M69 4H66V7H69V4Z" fill="#FFDBB2"/>
<path d="M69 7H66V11H69V7Z" fill="#FFDBB2"/>
<path d="M69 11H66V15H69V11Z" fill="#FFDBB2"/>
<path d="M69 15H66V18H69V15Z" fill="#FFDBB2"/>
<path d="M69 18H66V22H69V18Z" fill="#FFDBB2"/>
<path d="M69 22H66V25H69V22Z" fill="#FFDBB2"/>
<path d="M69 40H66V44H69V40Z" fill="#FFDBB2"/>
<path d="M69 44H66V47H69V44Z" fill="#FFDBB2"/>
<path d="M69 51H66V55H69V51Z" fill="#FFDBB2"/>
<path d="M69 55H66V58H69V55Z" fill="#FFDBB2"/>
<path d="M69 58H66V62H69V58Z" fill="#FFDBB2"/>
<path d="M69 66H66V69H69V66Z" fill="#FFDBB2"/>
<path d="M69 73H66V76H69V73Z" fill="#FFDBB2"/>
<path d="M69 76H66V80H69V76Z" fill="#FFDBB2"/>
<path d="M69 84H66V87H69V84Z" fill="#FFDBB2"/>
<path d="M69 87H66V91H69V87Z" fill="#FFDBB2"/>
<path d="M73 0H69V4H73V0Z" fill="#FFDBB2"/>
<path d="M73 22H69V25H73V22Z" fill="#FFDBB2"/>
<path d="M73 29H69V33H73V29Z" fill="#FFDBB2"/>
<path d="M73 33H69V36H73V33Z" fill="#FFDBB2"/>
<path d="M73 44H69V47H73V44Z" fill="#FFDBB2"/>
<path d="M73 47H69V51H73V47Z" fill="#FFDBB2"/>
<path d="M73 51H69V55H73V51Z" fill="#FFDBB2"/>
<path d="M73 58H69V62H73V58Z" fill="#FFDBB2"/>
<path d="M73 73H69V76H73V73Z" fill="#FFDBB2"/>
<path d="M73 80H69V84H73V80Z" fill="#FFDBB2"/>
<path d="M73 84H69V87H73V84Z" fill="#FFDBB2"/>
<path d="M73 87H69V91H73V87Z" fill="#FFDBB2"/>
<path d="M76 0H73V4H76V0Z" fill="#FFDBB2"/>
<path d="M76 7H73V11H76V7Z" fill="#FFDBB2"/>
<path d="M76 11H73V15H76V11Z" fill="#FFDBB2"/>
<path d="M76 15H73V18H76V15Z" fill="#FFDBB2"/>
<path d="M76 22H73V25H76V22Z" fill="#FFDBB2"/>
<path d="M76 36H73V40H76V36Z" fill="#FFDBB2"/>
<path d="M76 44H73V47H76V44Z" fill="#FFDBB2"/>
<path d="M76 51H73V55H76V51Z" fill="#FFDBB2"/>
<path d="M76 58H73V62H76V58Z" fill="#FFDBB2"/>
<path d="M76 62H73V66H76V62Z" fill="#FFDBB2"/>
<path d="M76 66H73V69H76V66Z" fill="#FFDBB2"/>
<path d="M76 69H73V73H76V69Z" fill="#FFDBB2"/>
<path d="M76 73H73V76H76V73Z" fill="#FFDBB2"/>
<path d="M76 76H73V80H76V76Z" fill="#FFDBB2"/>
<path d="M76 84H73V87H76V84Z" fill="#FFDBB2"/>
<path d="M76 87H73V91H76V87Z" fill="#FFDBB2"/>
<path d="M80 0H76V4H80V0Z" fill="#FFDBB2"/>
<path d="M80 7H76V11H80V7Z" fill="#FFDBB2"/>
<path d="M80 11H76V15H80V11Z" fill="#FFDBB2"/>
<path d="M80 15H76V18H80V15Z" fill="#FFDBB2"/>
<path d="M80 22H76V25H80V22Z" fill="#FFDBB2"/>
<path d="M80 29H76V33H80V29Z" fill="#FFDBB2"/>
<path d="M80 36H76V40H80V36Z" fill="#FFDBB2"/>
<path d="M80 47H76V51H80V47Z" fill="#FFDBB2"/>
<path d="M80 51H76V55H80V51Z" fill="#FFDBB2"/>
<path d="M80 55H76V58H80V55Z" fill="#FFDBB2"/>
<path d="M80 62H76V66H80V62Z" fill="#FFDBB2"/>
<path d="M80 66H76V69H80V66Z" fill="#FFDBB2"/>
<path d="M80 69H76V73H80V69Z" fill="#FFDBB2"/>
<path d="M80 73H76V76H80V73Z" fill="#FFDBB2"/>
<path d="M80 84H76V87H80V84Z" fill="#FFDBB2"/>
<path d="M80 87H76V91H80V87Z" fill="#FFDBB2"/>
<path d="M84 0H80V4H84V0Z" fill="#FFDBB2"/>
<path d="M84 7H80V11H84V7Z" fill="#FFDBB2"/>
<path d="M84 11H80V15H84V11Z" fill="#FFDBB2"/>
<path d="M84 15H80V18H84V15Z" fill="#FFDBB2"/>
<path d="M84 22H80V25H84V22Z" fill="#FFDBB2"/>
<path d="M84 44H80V47H84V44Z" fill="#FFDBB2"/>
<path d="M84 58H80V62H84V58Z" fill="#FFDBB2"/>
<path d="M84 62H80V66H84V62Z" fill="#FFDBB2"/>
<path d="M84 66H80V69H84V66Z" fill="#FFDBB2"/>
<path d="M84 73H80V76H84V73Z" fill="#FFDBB2"/>
<path d="M84 76H80V80H84V76Z" fill="#FFDBB2"/>
<path d="M84 80H80V84H84V80Z" fill="#FFDBB2"/>
<path d="M84 87H80V91H84V87Z" fill="#FFDBB2"/>
<path d="M87 0H84V4H87V0Z" fill="#FFDBB2"/>
<path d="M87 22H84V25H87V22Z" fill="#FFDBB2"/>
<path d="M87 29H84V33H87V29Z" fill="#FFDBB2"/>
<path d="M87 33H84V36H87V33Z" fill="#FFDBB2"/>
<path d="M87 36H84V40H87V36Z" fill="#FFDBB2"/>
<path d="M87 44H84V47H87V44Z" fill="#FFDBB2"/>
<path d="M87 47H84V51H87V47Z" fill="#FFDBB2"/>
<path d="M87 51H84V55H87V51Z" fill="#FFDBB2"/>
<path d="M87 66H84V69H87V66Z" fill="#FFDBB2"/>
<path d="M87 69H84V73H87V69Z" fill="#FFDBB2"/>
<path d="M87 73H84V76H87V73Z" fill="#FFDBB2"/>
<path d="M87 76H84V80H87V76Z" fill="#FFDBB2"/>
<path d="M87 87H84V91H87V87Z" fill="#FFDBB2"/>
<path d="M91 0H87V4H91V0Z" fill="#FFDBB2"/>
<path d="M91 4H87V7H91V4Z" fill="#FFDBB2"/>
<path d="M91 7H87V11H91V7Z" fill="#FFDBB2"/>
<path d="M91 11H87V15H91V11Z" fill="#FFDBB2"/>
<path d="M91 15H87V18H91V15Z" fill="#FFDBB2"/>
<path d="M91 18H87V22H91V18Z" fill="#FFDBB2"/>
<path d="M91 22H87V25H91V22Z" fill="#FFDBB2"/>
<path d="M91 36H87V40H91V36Z" fill="#FFDBB2"/>
<path d="M91 40H87V44H91V40Z" fill="#FFDBB2"/>
<path d="M91 44H87V47H91V44Z" fill="#FFDBB2"/>
<path d="M91 51H87V55H91V51Z" fill="#FFDBB2"/>
<path d="M91 55H87V58H91V55Z" fill="#FFDBB2"/>
<path d="M91 66H87V69H91V66Z" fill="#FFDBB2"/>
<path d="M91 69H87V73H91V69Z" fill="#FFDBB2"/>
<path d="M91 73H87V76H91V73Z" fill="#FFDBB2"/>
<path d="M91 76H87V80H91V76Z" fill="#FFDBB2"/>
<path d="M91 80H87V84H91V80Z" fill="#FFDBB2"/>
<path d="M91 84H87V87H91V84Z" fill="#FFDBB2"/>
<path d="M91 87H87V91H91V87Z" fill="#FFDBB2"/>
<mask id="path-330-outside-1" maskUnits="userSpaceOnUse" x="28" y="28" width="35" height="36" fill="black">
<rect fill="white" x="28" y="28" width="35" height="36"/>
<path fill-rule="evenodd" clip-rule="evenodd" d="M52 43C52 47.9706 47.9706 52 43 52C38.0294 52 34 47.9706 34 43C34 38.0294 38.0294 34 43 34C47.9706 34 52 38.0294 52 43ZM49.1841 52.0984C47.4219 53.2985 45.2929 54 43 54C36.9249 54 32 49.0751 32 43C32 36.9249 36.9249 32 43 32C49.0751 32 54 36.9249 54 43C54 46.0594 52.751 48.8271 50.7352 50.821L58.2072 58.293L56.793 59.7072L49.1841 52.0984Z"/>
</mask>
<path fill-rule="evenodd" clip-rule="evenodd" d="M52 43C52 47.9706 47.9706 52 43 52C38.0294 52 34 47.9706 34 43C34 38.0294 38.0294 34 43 34C47.9706 34 52 38.0294 52 43ZM49.1841 52.0984C47.4219 53.2985 45.2929 54 43 54C36.9249 54 32 49.0751 32 43C32 36.9249 36.9249 32 43 32C49.0751 32 54 36.9249 54 43C54 46.0594 52.751 48.8271 50.7352 50.821L58.2072 58.293L56.793 59.7072L49.1841 52.0984Z" fill="#D4954D"/>
<path d="M49.1841 52.0984L52.0126 49.2699C50.6538 47.9112 48.5209 47.7106 46.9326 48.7922L49.1841 52.0984ZM50.7352 50.821L47.9223 47.9771C47.1653 48.7258 46.7381 49.7453 46.7352 50.81C46.7323 51.8747 47.1539 52.8965 47.9067 53.6494L50.7352 50.821ZM58.2072 58.293L61.0356 61.1214C62.5977 59.5593 62.5977 57.0266 61.0356 55.4645L58.2072 58.293ZM56.793 59.7072L53.9645 62.5356C55.5266 64.0977 58.0593 64.0977 59.6214 62.5356L56.793 59.7072ZM43 56C50.1797 56 56 50.1797 56 43H48C48 45.7614 45.7614 48 43 48V56ZM30 43C30 50.1797 35.8203 56 43 56V48C40.2386 48 38 45.7614 38 43H30ZM43 30C35.8203 30 30 35.8203 30 43H38C38 40.2386 40.2386 38 43 38V30ZM56 43C56 35.8203 50.1797 30 43 30V38C45.7614 38 48 40.2386 48 43H56ZM43 58C46.1211 58 49.0307 57.0424 51.4357 55.4045L46.9326 48.7922C45.8131 49.5546 44.4646 50 43 50V58ZM28 43C28 51.2843 34.7157 58 43 58V50C39.134 50 36 46.866 36 43H28ZM43 28C34.7157 28 28 34.7157 28 43H36C36 39.134 39.134 36 43 36V28ZM58 43C58 34.7157 51.2843 28 43 28V36C46.866 36 50 39.134 50 43H58ZM53.548 53.6648C56.2924 50.9504 58 47.1709 58 43H50C50 44.9478 49.2097 46.7037 47.9223 47.9771L53.548 53.6648ZM47.9067 53.6494L55.3788 61.1214L61.0356 55.4645L53.5636 47.9925L47.9067 53.6494ZM55.3788 55.4645L53.9645 56.8788L59.6214 62.5356L61.0356 61.1214L55.3788 55.4645ZM59.6214 56.8788L52.0126 49.2699L46.3557 54.9268L53.9645 62.5356L59.6214 56.8788Z" fill="white" mask="url(#path-330-outside-1)"/>
<circle cx="43" cy="43" r="8" fill="white"/>
</svg>
