<svg width="176" height="29" viewBox="0 0 176 29" fill="none" xmlns="http://www.w3.org/2000/svg">
<path d="M42.2401 28.24C40.1867 28.24 38.4734 27.5467 37.1001 26.16C35.7401 24.76 35.0601 23.04 35.0601 21C35.0601 18.9733 35.7467 17.26 37.1201 15.86C38.4934 14.46 40.2401 13.76 42.3601 13.76C43.5734 13.76 44.5934 13.96 45.4201 14.36C46.2467 14.7467 47.0334 15.3067 47.7801 16.04L45.9401 18.16C45.3401 17.6133 44.7734 17.22 44.2401 16.98C43.7201 16.7267 43.0867 16.6 42.3401 16.6C41.1667 16.6 40.1934 17.0267 39.4201 17.88C38.6601 18.72 38.2801 19.76 38.2801 21C38.2801 22.2267 38.6601 23.2667 39.4201 24.12C40.1934 24.9733 41.1667 25.4 42.3401 25.4C43.0867 25.4 43.7334 25.2667 44.2801 25C44.8267 24.7333 45.4067 24.32 46.0201 23.76L47.9801 25.86C47.2201 26.6733 46.3934 27.2733 45.5001 27.66C44.6201 28.0467 43.5334 28.24 42.2401 28.24Z" fill="#413629"/>
<path d="M50.4457 28V14H56.8457C58.619 14 59.979 14.4733 60.9257 15.42C61.7257 16.22 62.1257 17.3 62.1257 18.66C62.1257 20.8067 61.1257 22.2533 59.1257 23L62.5457 28H58.9457L55.9057 23.52H53.5257V28H50.4457ZM53.5257 20.8H56.6457C57.3924 20.8 57.9724 20.62 58.3857 20.26C58.799 19.8867 59.0057 19.3933 59.0057 18.78C59.0057 18.1267 58.7924 17.6333 58.3657 17.3C57.939 16.9533 57.3457 16.78 56.5857 16.78H53.5257V20.8Z" fill="#413629"/>
<path d="M68.331 14V19.52L62.951 28H66.551L69.891 22.38L73.291 28H76.791L71.411 19.58V14H68.331Z" fill="#413629"/>
<path d="M78.7074 28V14H84.4274C86.0807 14 87.3874 14.4467 88.3474 15.34C89.3074 16.2333 89.7874 17.4133 89.7874 18.88C89.7874 20.44 89.2541 21.6533 88.1874 22.52C87.1207 23.3733 85.7674 23.8 84.1274 23.8H81.7874V28H78.7074ZM81.7874 21.06H84.2274C84.9874 21.06 85.5807 20.86 86.0074 20.46C86.4474 20.06 86.6674 19.54 86.6674 18.9C86.6674 18.22 86.4474 17.7 86.0074 17.34C85.5674 16.9667 84.9541 16.78 84.1674 16.78H81.7874V21.06Z" fill="#413629"/>
<path d="M95.3268 28V16.84H91.0668V14H102.667V16.84H98.4068V28H95.3268Z" fill="#413629"/>
<path d="M116.55 26.14C115.137 27.54 113.363 28.24 111.23 28.24C109.097 28.24 107.323 27.54 105.91 26.14C104.51 24.74 103.81 23.0267 103.81 21C103.81 18.9867 104.517 17.28 105.93 15.88C107.357 14.4667 109.137 13.76 111.27 13.76C113.403 13.76 115.17 14.46 116.57 15.86C117.983 17.26 118.69 18.9733 118.69 21C118.69 23.0133 117.977 24.7267 116.55 26.14ZM108.23 24.12C109.03 24.9733 110.043 25.4 111.27 25.4C112.497 25.4 113.503 24.98 114.29 24.14C115.077 23.2867 115.47 22.24 115.47 21C115.47 19.7733 115.07 18.7333 114.27 17.88C113.47 17.0267 112.457 16.6 111.23 16.6C110.003 16.6 108.997 17.0267 108.21 17.88C107.423 18.72 107.03 19.76 107.03 21C107.03 22.2267 107.43 23.2667 108.23 24.12Z" fill="#413629"/>
<path d="M121.422 28V14H127.142C128.796 14 130.102 14.4467 131.062 15.34C132.022 16.2333 132.502 17.4133 132.502 18.88C132.502 20.44 131.969 21.6533 130.902 22.52C129.836 23.3733 128.482 23.8 126.842 23.8H124.502V28H121.422ZM124.502 21.06H126.942C127.702 21.06 128.296 20.86 128.722 20.46C129.162 20.06 129.382 19.54 129.382 18.9C129.382 18.22 129.162 17.7 128.722 17.34C128.282 16.9667 127.669 16.78 126.882 16.78H124.502V21.06Z" fill="#413629"/>
<path d="M134.782 28V14H141.182C142.955 14 144.315 14.4733 145.262 15.42C146.062 16.22 146.462 17.3 146.462 18.66C146.462 20.8067 145.462 22.2533 143.462 23L146.882 28H143.282L140.242 23.52H137.862V28H134.782ZM137.862 20.8H140.982C141.728 20.8 142.308 20.62 142.722 20.26C143.135 19.8867 143.342 19.3933 143.342 18.78C143.342 18.1267 143.128 17.6333 142.702 17.3C142.275 16.9533 141.682 16.78 140.922 16.78H137.862V20.8Z" fill="#413629"/>
<path d="M148.035 28L154.035 13.9H156.875L162.875 28H159.655L158.375 24.86H152.455L151.175 28H148.035ZM153.555 22.14H157.275L155.415 17.6L153.555 22.14Z" fill="#413629"/>
<path d="M166.768 28V22.48L161.388 14H164.988L168.329 19.62L171.729 14H175.229L169.848 22.42V28H166.768Z" fill="#413629"/>
<path fill-rule="evenodd" clip-rule="evenodd" d="M71.583 12C72.8515 11.3386 73.7247 9.97013 73.7247 8.39231C73.7247 7.84672 73.5638 6.76049 72.1726 3.63883C71.4376 1.98973 70.7149 0.57402 70.6845 0.514594C70.5224 0.197871 70.2063 0 69.8623 0C69.5183 0 69.2023 0.197871 69.0403 0.514658C69.0099 0.574084 68.2871 1.9898 67.5522 3.63883C66.1609 6.76049 66 7.84685 66 8.39231C66 9.97013 66.8732 11.3386 68.1417 12H71.583ZM69.8623 3.10477C68.8656 5.2122 67.8636 7.61565 67.8636 8.39231C67.8636 9.54254 68.7602 10.4783 69.8623 10.4783C70.9644 10.4783 71.8611 9.54254 71.8611 8.39231C71.8611 7.61565 70.859 5.21213 69.8623 3.10477Z" fill="#DCA05A"/>
<rect y="14" width="17" height="2" fill="#DCA05A"/>
<rect x="6" y="20" width="11" height="2" fill="#DCA05A"/>
<rect y="26" width="17" height="2" fill="#DCA05A"/>
</svg>
