<svg width="26" height="16" viewBox="0 0 76 76" fill="none" xmlns="http://www.w3.org/2000/svg">
<path d="M42.1465 20.9143C42.1465 25.7434 40.2282 30.3747 36.8135 33.7893C33.3988 37.204 28.7676 39.1224 23.9385 39.1224C19.1094 39.1224 14.4782 37.204 11.0635 33.7893C7.64884 30.3747 5.73047 25.7434 5.73047 20.9143C5.73047 16.0853 7.64884 11.454 11.0635 8.03933C14.4782 4.62467 19.1094 2.7063 23.9385 2.7063C28.7676 2.7063 33.3988 4.62467 36.8135 8.03933C40.2282 11.454 42.1465 16.0853 42.1465 20.9143Z" fill="#E1AC6A" stroke="#E1AC6A" stroke-width="4.93204"/>
<path d="M60.0609 41.155L27.279 73.9369C15.9598 73.6099 9.26957 66.7766 5.54193 58.7654C1.94794 51.0414 1.40634 42.3671 7.84983 33.3122L22.8633 18.2988C26.2053 21.2147 27.8328 26.1264 26.0853 30.3231L41.887 14.5212C57.3854 19.6874 61.0828 32.7529 60.0609 41.155Z" fill="white" stroke="#4B423D" stroke-width="6.22774"/>
<path d="M26.0896 30.3184L19.5061 36.9018C22.6586 41.5118 22.081 46.0772 20.6754 50.2014" fill="white"/>
<path d="M26.0896 30.3184L19.5061 36.9018C22.6586 41.5118 22.081 46.0772 20.6754 50.2014" stroke="#4B423D" stroke-width="6.22774"/>
<path d="M40.3339 8.99438C48.8251 22.3808 40.4518 35.6057 31.189 38.2745C27.1262 39.4451 22.9552 39.2765 22.9552 39.2765C22.6848 38.5309 22.3764 37.8358 22.0176 37.2079C28.8536 30.6747 28.5241 27.8127 28.7297 24.7445" fill="#E1AC6A"/>
<path d="M48.5106 57.5067C48.5106 59.6634 47.6538 61.7317 46.1288 63.2567C44.6038 64.7817 42.5355 65.6385 40.3788 65.6385C38.2221 65.6385 36.1538 64.7817 34.6288 63.2567C33.1038 61.7317 32.2471 59.6634 32.2471 57.5067C32.2471 55.3501 33.1038 53.2817 34.6288 51.7567C36.1538 50.2317 38.2221 49.375 40.3788 49.375C42.5355 49.375 44.6038 50.2317 46.1288 51.7567C47.6538 53.2817 48.5106 55.3501 48.5106 57.5067Z" fill="#E1AC6A" stroke="#E1AC6A" stroke-width="11.0435"/>
<path d="M73.7345 50.4358C73.7345 51.7486 73.213 53.0076 72.2847 53.9358C71.3565 54.8641 70.0975 55.3856 68.7847 55.3856C67.472 55.3856 66.213 54.8641 65.2847 53.9358C64.3565 53.0076 63.835 51.7486 63.835 50.4358C63.835 49.1231 64.3565 47.8641 65.2847 46.9358C66.213 46.0076 67.472 45.4861 68.7847 45.4861C70.0975 45.4861 71.3565 46.0076 72.2847 46.9358C73.213 47.8641 73.7345 49.1231 73.7345 50.4358Z" fill="#E1AC6A" stroke="#E1AC6A" stroke-width="18.1429"/>
</svg>
