<svg width="26" height="16" viewBox="0 0 83 76" fill="none" xmlns="http://www.w3.org/2000/svg">
<path d="M41.704 25.3765V67.7306C34.1805 74.8315 25.4443 74.7394 17.861 71.9722C10.5495 69.3042 4.59618 64.0503 2.90918 54.0383V34.641C6.95182 34.3658 11.1761 36.4875 12.7583 40.3275V19.9113C26.1076 13.2366 36.9364 19.2887 41.704 25.3765V25.3765Z" stroke="#4B423D" stroke-width="6.81684"/>
<path d="M12.7578 40.3215V48.8273C19.7895 51.1625 22.9158 55.255 26.1389 59.304" stroke="#4B423D" stroke-width="6.81684"/>
<path d="M41.7042 25.3765V67.7306C49.2277 74.8315 57.9639 74.7394 65.5472 71.9722C72.8587 69.3042 78.812 64.0503 80.499 54.0383V34.641C76.4564 34.3658 72.2321 36.4875 70.6499 40.3275V19.9113C57.3006 13.2366 46.4718 19.2887 41.7042 25.3765V25.3765Z" stroke="#4B423D" stroke-width="6.81684"/>
<path d="M70.6504 40.3215V48.8273C63.6187 51.1625 60.4924 55.255 57.2693 59.304" stroke="#4B423D" stroke-width="6.81684"/>
<path d="M33.1117 50.0302C34.5241 51.5141 36.2271 52.8695 38.2192 54.0939C40.2118 55.3182 42.1916 56.3341 44.1605 57.1408C46.129 57.948 48.3527 58.702 50.8322 59.4051L50.7882 59.3721L50.9486 59.3871C48.7195 56.3529 47.4168 53.6001 47.0395 51.1271C46.839 49.813 46.9654 48.5218 47.4177 47.2541C47.8697 45.9853 48.5333 44.8091 49.4094 43.7275C50.286 42.645 51.2714 41.5459 52.3661 40.43C53.4605 39.3133 54.5443 38.1267 55.6189 36.8694C56.692 35.6118 57.646 34.306 58.4807 32.953C59.3154 31.5998 59.9182 30.0252 60.2906 28.2287C60.6618 26.4323 60.6947 24.5291 60.3885 22.5203C60.0033 19.9958 59.2869 17.6802 58.2412 15.5728C57.1946 13.4658 55.965 11.6696 54.5528 10.1852C53.1406 8.70058 51.4383 7.34568 49.4448 6.12158C47.4524 4.89678 45.4726 3.8809 43.5041 3.0744C41.5356 2.2678 39.312 1.51319 36.8328 0.810791L36.8777 0.844788L36.7553 0.822784C38.966 3.91178 40.256 6.6675 40.6254 9.0885C40.8259 10.4022 40.7005 11.6934 40.2479 12.9614C39.7954 14.2298 39.1313 15.4051 38.2555 16.4878C37.3793 17.5702 36.3941 18.6696 35.2992 19.7858C34.2039 20.9016 33.1195 22.0888 32.0463 23.3463C30.9731 24.6038 30.0192 25.9093 29.1843 27.2621C28.3497 28.6152 27.7467 30.1899 27.3748 31.9863C27.0034 33.7827 26.9705 35.6859 27.2768 37.6946C27.6621 40.2192 28.3771 42.5352 29.4235 44.6422C30.4702 46.7493 31.7 48.5461 33.1125 50.0301L33.1117 50.0302Z" fill="#E1AC6A"/>
</svg>
