<svg width="26" height="16" viewBox="0 0 114 58" fill="none" xmlns="http://www.w3.org/2000/svg">
<path d="M31.6315 13.104L23.6821 16.7481C24.2634 20.3393 21.9092 23.4004 19.0824 26.0472" stroke="#4B423D" stroke-width="4"/>
<path d="M82.9577 13.104L90.9071 16.7481C90.3257 20.3393 92.68 23.4004 95.5067 26.0472" stroke="#4B423D" stroke-width="4"/>
<path d="M53.252 23.394L13.6682 41.54C4.83936 39.7997 2.37993 34.2067 2.7562 28.2005C3.11904 22.4097 6.29412 16.3744 15.1596 11.0125L33.2881 2.7019C34.7234 5.15385 34.7544 10.4557 31.6266 13.1067L50.7072 4.35972C60.8353 9.98608 57.5523 17.755 53.252 23.394V23.394Z" stroke="#4B423D" stroke-width="4"/>
<path d="M61.3386 23.394L100.922 41.54C109.751 39.7997 112.211 34.2067 111.834 28.2005C111.471 22.4097 108.296 16.3744 99.4308 11.0125L81.3024 2.7019C79.8671 5.15385 79.8361 10.4557 82.9639 13.1067L63.8833 4.35972C53.7552 9.98608 57.0383 17.755 61.3386 23.394V23.394Z" stroke="#4B423D" stroke-width="4"/>
<path d="M91.1421 50.5554C87.2398 47.356 83.0362 45.2327 82.1897 44.8167C82.0893 44.7736 82.0319 44.6732 82.0319 44.5584V38.4897C82.7923 37.9876 83.2944 37.1124 83.2944 36.1225V29.8242C83.2944 26.6966 80.755 24.1572 77.6274 24.1572H76.9531H76.2788C73.1512 24.1572 70.6118 26.6966 70.6118 29.8242V36.1225C70.6118 37.1124 71.114 37.9732 71.8743 38.4897V44.5584C71.8743 44.6015 71.86 44.6302 71.86 44.6588C73.0508 45.4766 74.299 46.3948 75.5184 47.3991C76.9388 48.5755 77.7565 50.2971 77.7565 52.1622V57.2267H92.2468V52.9083C92.2468 52.0044 91.8451 51.1293 91.1421 50.5554Z" fill="#E1AC6A"/>
<path d="M73.8685 49.3933C69.2919 45.6345 64.3566 43.1381 63.338 42.636C63.2232 42.5786 63.1515 42.4638 63.1515 42.3347V35.2043C64.0553 34.6018 64.6435 33.5831 64.6435 32.4354V25.0324C64.6435 21.3596 61.6594 18.3755 57.9866 18.3755H57.1975H56.4084C52.7357 18.3755 49.7515 21.3596 49.7515 25.0324V32.421C49.7515 33.5831 50.3397 34.6018 51.2436 35.19V42.3203C51.2436 42.4495 51.1719 42.5642 51.0571 42.6216C50.0528 43.1094 45.1175 45.6058 40.5265 49.379C39.6944 50.0533 39.2209 51.0719 39.2209 52.1479V57.2124H57.1975H75.1741V52.1479C75.1741 51.0863 74.7007 50.0676 73.8685 49.3933Z" fill="#E1AC6A"/>
<path d="M42.5207 44.5584V38.4897C43.2811 37.9876 43.7832 37.1124 43.7832 36.1225V29.8242C43.7832 26.6966 41.2438 24.1572 38.1162 24.1572H37.4419H36.7676C33.64 24.1572 31.1006 26.6966 31.1006 29.8242V36.1225C31.1006 37.1124 31.6028 37.9732 32.3631 38.4897V44.5584C32.3631 44.6588 32.3057 44.7593 32.2053 44.8167C31.3445 45.2327 27.1409 47.356 23.2529 50.5554C22.5499 51.1293 22.1482 52.0044 22.1482 52.9083V57.2267H36.6385V52.1622C36.6385 50.3115 37.4563 48.5755 38.8766 47.3991C40.0961 46.3948 41.3443 45.4766 42.535 44.6588C42.535 44.6302 42.5207 44.6015 42.5207 44.5584Z" fill="#E1AC6A"/>
</svg>
