<svg width="168" height="168" viewBox="0 0 168 168" fill="none" xmlns="http://www.w3.org/2000/svg">
<g style="mix-blend-mode:darken" opacity="0.8">
<circle cx="84" cy="84" r="84"/>
</g>
<path d="M79.8708 83.4056V100.278L63.6987 126.197H74.5202L84.5601 109.019L94.7804 126.197H105.301L89.1292 100.461V83.4056H79.8708Z" fill="#DCA05A"/>
<path fill-rule="evenodd" clip-rule="evenodd" d="M89.5305 77.8136C93.2391 75.8288 95.7921 71.7222 95.7921 66.9873C95.7921 65.3501 95.3218 62.0905 91.2542 52.7228C89.1054 47.774 86.9925 43.5257 86.9037 43.3473C86.4297 42.3969 85.5056 41.8031 84.4999 41.8031C83.4942 41.8031 82.5701 42.3969 82.0965 43.3475C82.0077 43.5259 79.8946 47.7742 77.7458 52.7228C73.6782 62.0905 73.2079 65.3505 73.2079 66.9873C73.2079 71.7222 75.7609 75.8288 79.4695 77.8136C79.4695 77.8136 81.1542 78.6511 84.4999 78.6511C87.8456 78.6511 89.5305 77.8136 89.5305 77.8136ZM84.4999 51.1201C81.5859 57.4442 78.6564 64.6567 78.6564 66.9873C78.6564 70.439 81.2777 73.2472 84.4999 73.247C87.722 73.247 90.3435 70.439 90.3435 66.9873C90.3435 64.6567 87.4139 57.444 84.4999 51.1201Z" fill="#DCA05A"/>
</svg>
