<svg width="168" height="168" viewBox="0 0 168 168" fill="none" xmlns="http://www.w3.org/2000/svg">
<circle opacity="0.6" r="84" transform="matrix(1 0 0 -1 84 84)"/>
<path d="M80.8708 83.4056V100.278L64.6987 126.197H75.5202L85.5601 109.019L95.7804 126.197H106.301L90.1292 100.461V83.4056H80.8708Z" fill="#DCA05A"/>
<path fill-rule="evenodd" clip-rule="evenodd" d="M90.5305 77.8136C94.2391 75.8288 96.7921 71.7222 96.7921 66.9873C96.7921 65.3501 96.3218 62.0905 92.2542 52.7228C90.1054 47.774 87.9925 43.5257 87.9037 43.3473C87.4297 42.3969 86.5056 41.8031 85.4999 41.8031C84.4942 41.8031 83.5701 42.3969 83.0965 43.3475C83.0077 43.5259 80.8946 47.7742 78.7458 52.7228C74.6782 62.0905 74.2079 65.3505 74.2079 66.9873C74.2079 71.7222 76.7609 75.8288 80.4695 77.8136C80.4695 77.8136 82.1542 78.6511 85.4999 78.6511C88.8456 78.6511 90.5305 77.8136 90.5305 77.8136ZM85.4999 51.1201C82.5859 57.4442 79.6564 64.6567 79.6564 66.9873C79.6564 70.439 82.2777 73.2472 85.4999 73.247C88.722 73.247 91.3435 70.439 91.3435 66.9873C91.3435 64.6567 88.4139 57.444 85.4999 51.1201Z" fill="#DCA05A"/>
</svg>
