<svg width="49" height="56" viewBox="0 0 49 96" fill="none" xmlns="http://www.w3.org/2000/svg">
<path d="M19.1894 46.501V65.8569L0.636475 95.592H13.0511L24.5691 75.8855L36.2941 95.592H48.3638L29.8109 66.0673V46.501H19.1894Z" fill="#DCA05A"/>
<path fill-rule="evenodd" clip-rule="evenodd" d="M30.2714 41.4493C34.5259 39.1722 37.4548 34.461 37.4548 29.0291C37.4548 27.1508 36.9152 23.4113 32.2488 12.6645C29.7836 6.98719 27.3597 2.11336 27.2578 1.90878C26.714 0.818411 25.6539 0.137207 24.5001 0.137207C23.3464 0.137207 22.2862 0.818411 21.7429 1.909C21.641 2.11359 19.2168 6.98741 16.7517 12.6645C12.0853 23.4113 11.5457 27.1513 11.5457 29.0291C11.5457 34.461 14.4746 39.1722 18.7291 41.4493C18.7291 41.4493 20.6618 42.41 24.5001 42.41C28.3384 42.41 30.2714 41.4493 30.2714 41.4493ZM24.5001 10.8259C21.1571 18.0811 17.7963 26.3553 17.7963 29.0291C17.7963 32.989 20.8035 36.2106 24.5001 36.2104C28.1965 36.2104 31.204 32.989 31.204 29.0291C31.204 26.3553 27.8431 18.0808 24.5001 10.8259Z" fill="#DCA05A"/>
</svg>
