<svg width="34" height="28" viewBox="0 0 54 28" fill="none" xmlns="http://www.w3.org/2000/svg">
<path d="M28.7622 25.7249C27.4619 27.0254 25.7329 27.7416 23.8937 27.7416C22.2281 27.7416 20.654 27.1525 19.4056 26.0756C18.5832 26.3771 17.7058 26.5355 16.8037 26.5355C14.9386 26.5355 13.1776 25.862 11.7958 24.6323C8.31029 26.0398 4.16198 25.3372 1.33782 22.5222C1.10993 22.2949 0.981689 21.9865 0.981446 21.6646C0.981446 21.6643 0.981446 21.664 0.981446 21.664C0.981446 21.3422 1.10921 21.034 1.33648 20.8066L16.9882 5.1548C23.2091 -1.06602 33.3332 -1.0682 39.5567 5.1502L52.8927 18.4752C52.8928 18.4754 52.8929 18.4755 52.893 18.4756C53.1298 18.7123 53.2481 19.0225 53.2481 19.3327C53.2481 19.6429 53.1298 19.9531 52.893 20.1898C52.4198 20.663 51.6525 20.6632 51.1792 20.1902L51.1788 20.1898C46.5246 15.5357 38.9517 15.5357 34.2975 20.1898L28.7622 25.7249ZM45.5333 14.549L37.8431 6.86513C32.565 1.59111 23.9785 1.59293 18.7024 6.86901L3.98137 21.5902C6.80663 23.5887 10.7564 23.3236 13.2831 20.7971L21.0854 12.9948C21.5587 12.5215 22.3263 12.5215 22.7997 12.9948C23.2731 13.4683 23.2731 14.2358 22.7997 14.7091L14.1416 23.3672C14.9356 23.8522 15.8498 24.1113 16.8039 24.1113C18.1716 24.1113 19.4575 23.5786 20.4247 22.6116L28.0743 14.9619C28.5477 14.4885 29.3152 14.4885 29.7886 14.9619C30.0253 15.1986 30.1436 15.5088 30.1436 15.819C30.1436 16.1292 30.0252 16.4393 29.7886 16.6761C29.7886 16.6761 21.8454 24.605 21.6924 24.7356C23.394 25.7006 25.5993 25.4597 27.0481 24.0108L32.5833 18.4757C36.0959 14.9631 40.9905 13.6546 45.5333 14.549Z" fill="#D4954D"/>
</svg>
